<?xml version="1.0" standalone="no"?>
<!DOCTYPE svg PUBLIC "-//W3C//DTD SVG 20010904//EN"
 "http://www.w3.org/TR/2001/REC-SVG-20010904/DTD/svg10.dtd">
<svg version="1.0" xmlns="http://www.w3.org/2000/svg"
 width="382.000000pt" height="319.000000pt" viewBox="0 0 382.000000 319.000000"
 preserveAspectRatio="xMidYMid meet">
<metadata>
Created by potrace 1.16, written by Peter Selinger 2001-2019
</metadata>
<g transform="translate(0.000000,319.000000) scale(0.100000,-0.100000)"
fill="#000000" stroke="none">
<path d="M230 3183 c172 -3 236 -7 242 -16 6 -9 12 -9 28 1 24 15 84 17 60 2
-12 -8 -11 -10 8 -10 12 0 22 5 22 10 0 6 14 10 30 10 l30 0 -2 -297 c-2 -283
-3 -289 -8 -113 l-6 185 -2 -189 -2 -188 58 7 c31 3 95 10 142 14 l85 8 -77 1
-78 2 0 285 0 285 1533 3 c1280 2 1217 2 -383 2 -1053 0 -1809 -1 -1680 -2z"/>
<path d="M508 2851 c3 -43 1 -49 -19 -54 -19 -5 -21 -10 -16 -44 4 -21 7 -68
7 -105 l0 -68 51 0 50 0 -1 73 c-1 39 1 80 5 89 11 28 1 53 -24 56 -21 3 -23
8 -19 53 3 43 1 49 -17 49 -18 0 -20 -6 -17 -49z"/>
<path d="M2429 2717 c-56 -45 -270 -206 -326 -245 -32 -22 -63 -21 -63 3 0 8
10 15 23 17 28 4 37 58 13 77 -27 22 -46 6 -46 -39 0 -25 -4 -39 -10 -35 -5 3
-10 1 -10 -4 0 -6 -13 -11 -29 -11 -16 0 -34 -7 -41 -15 -20 -24 -33 -18 -27
14 3 15 3 38 0 50 -4 18 -13 21 -54 21 -28 0 -49 -5 -49 -11 0 -5 -5 -7 -11
-4 -13 8 -51 -30 -41 -40 10 -11 -71 5 -85 17 -7 5 -17 7 -23 3 -20 -13 -4
-29 31 -31 19 -1 46 -6 60 -12 23 -9 26 -16 23 -47 -2 -32 0 -36 19 -35 64 6
87 0 87 -20 0 -11 7 -20 15 -20 23 0 18 -22 -12 -45 -21 -18 -27 -31 -29 -76
-2 -30 -5 -63 -8 -74 -2 -11 -5 -23 -5 -27 -1 -5 -16 -8 -35 -8 -49 0 -78 40
-100 140 -3 14 -32 68 -66 119 -33 52 -60 105 -60 118 0 13 -6 23 -14 23 -21
0 -29 -17 -16 -32 41 -48 127 -203 142 -257 20 -74 40 -107 67 -116 11 -3 23
-15 26 -26 5 -16 16 -19 71 -19 50 0 64 -3 64 -15 0 -8 -9 -15 -20 -15 -13 0
-20 -7 -20 -20 0 -13 7 -20 20 -20 17 0 20 -7 20 -49 0 -52 11 -64 49 -54 18
5 21 13 21 59 0 70 -23 64 -38 -9 l-11 -52 2 52 c2 40 -2 54 -16 62 -26 17
-11 31 34 31 32 0 39 -3 39 -20 0 -40 29 -21 35 24 6 39 10 45 37 50 47 9 48
9 48 -34 0 -28 4 -40 14 -40 18 0 25 20 18 55 -4 24 -2 27 12 22 10 -4 25 -7
34 -7 14 0 13 -2 -2 -13 -25 -18 -14 -93 14 -102 20 -6 61 10 58 23 -1 4 2 15
7 25 4 10 3 29 -3 42 -9 20 -8 24 11 29 12 3 32 6 45 6 15 0 22 6 22 20 0 11
-7 20 -15 20 -18 0 -18 2 -4 34 7 14 19 27 28 29 13 4 13 5 -2 6 -13 1 -8 13
28 57 25 30 59 83 76 117 35 68 42 76 79 78 14 1 5 5 -20 8 -37 5 -45 10 -50
31 -5 23 -11 25 -75 28 -76 3 -140 -15 -170 -48 -10 -11 -26 -20 -36 -20 -20
0 -39 -28 -39 -59 0 -13 -5 -19 -14 -15 -19 7 -23 -175 -4 -188 10 -8 10 -11
1 -15 -7 -2 -13 -18 -13 -34 0 -24 -4 -29 -24 -29 -13 0 -31 -3 -40 -6 -13 -5
-15 13 -14 135 l2 141 33 0 c18 0 33 5 33 11 0 6 14 22 30 36 45 38 29 40 -24
3 -25 -17 -46 -27 -45 -23 1 12 349 267 355 260 3 -2 -54 -49 -125 -103 -72
-53 -129 -99 -127 -102 3 -2 58 36 123 85 65 49 144 107 176 129 56 38 69 65
36 72 -9 2 -40 -17 -70 -41z"/>
<path d="M815 2551 c-17 -3 -35 -16 -42 -31 -12 -24 -11 -25 25 -31 20 -3 -36
-7 -125 -8 -151 -1 -165 1 -183 19 -11 11 -28 20 -38 20 -39 0 -56 -46 -26
-71 14 -11 21 -10 46 4 25 14 55 17 186 16 86 -1 147 -4 135 -6 -21 -4 -23
-10 -23 -67 0 -40 5 -68 13 -74 8 -7 113 -11 299 -12 l287 -1 6 33 c3 18 5 74
3 123 l-3 90 -265 1 c-146 1 -278 -1 -295 -5z"/>
<path d="M480 2190 c0 -29 4 -40 15 -40 13 0 15 -20 15 -122 0 -95 -3 -119
-12 -110 -21 21 -27 13 -12 -18 9 -16 22 -30 30 -30 8 0 14 -6 14 -12 0 -7 6
-4 13 7 10 15 12 50 7 140 -6 131 -5 145 16 145 9 0 14 12 14 35 0 19 5 35 10
35 6 0 10 -65 10 -175 0 -149 -2 -175 -15 -175 -8 0 -15 -8 -16 -17 -1 -33
-55 -64 -130 -75 -41 -6 -66 -14 -58 -18 6 -5 -43 -11 -109 -15 -74 -5 -119
-11 -116 -17 4 -6 -8 -9 -27 -7 -19 1 -55 1 -81 0 -43 -1 -48 -3 -48 -24 0
-23 2 -24 68 -20 37 2 78 8 92 13 14 5 75 12 135 16 178 12 258 3 229 -26 -10
-10 -48 -14 -203 -25 -35 -2 -69 -9 -76 -15 -10 -8 -25 -8 -49 -2 -19 6 -71 9
-116 9 l-80 -2 0 -61 0 -62 38 -9 c21 -6 75 -8 121 -5 108 6 157 -9 155 -46
-1 -15 3 -33 9 -40 8 -10 5 -14 -11 -19 -18 -4 -22 -13 -22 -48 0 -39 -4 -46
-34 -65 -42 -25 -72 -71 -81 -122 -6 -30 -12 -38 -29 -38 -11 0 -28 -5 -36
-10 -13 -8 -12 -10 3 -10 10 0 15 -4 12 -10 -3 -5 0 -7 8 -4 8 3 20 -3 28 -13
13 -16 12 -17 -3 -4 -32 24 -19 -4 17 -39 43 -41 38 -44 -78 -55 l-77 -7 -1
-327 c-1 -179 -5 -308 -9 -286 l-7 40 -2 -53 c0 -33 3 -51 9 -47 5 3 10 0 11
-7 0 -7 2 -23 5 -36 2 -12 0 -22 -5 -22 -5 0 -12 10 -14 22 -2 13 -5 -7 -6
-44 -1 -54 2 -68 14 -68 9 0 15 -9 15 -25 0 -13 8 -32 18 -42 10 -10 29 -33
41 -50 l22 -33 404 0 403 0 105 60 c96 55 114 62 204 75 125 19 170 36 215 83
74 75 74 172 1 253 l-36 40 21 15 c12 8 22 25 22 38 0 13 5 37 11 55 8 22 8
40 0 61 -5 17 -7 30 -3 30 4 0 135 16 292 34 157 19 287 32 289 30 2 -2 -1
-15 -6 -27 -10 -20 -21 -25 -74 -31 -100 -10 -264 -94 -245 -125 4 -5 2 -12
-3 -16 -5 -3 -9 -23 -9 -44 0 -22 -3 -44 -6 -50 -4 -6 -5 -11 -1 -11 3 0 10
10 15 23 8 19 9 18 8 -13 0 -19 0 -135 1 -257 l1 -223 420 0 420 0 0 184 0
184 31 6 c17 3 52 6 77 6 49 0 52 8 6 16 -68 11 -71 16 -24 35 25 10 55 18 68
18 12 1 22 7 22 14 0 8 4 7 10 -3 6 -10 10 -11 10 -2 0 6 7 12 15 12 8 0 15 5
15 10 0 6 15 24 33 41 34 33 17 29 -20 -4 -12 -10 -42 -22 -67 -24 -39 -5 -52
-1 -86 22 -68 47 -110 139 -84 186 7 13 18 49 25 80 13 65 9 63 142 75 73 6
77 6 77 -14 0 -12 17 -35 40 -55 28 -24 38 -39 34 -51 -3 -9 -1 -23 6 -31 16
-19 31 -19 24 -1 -5 13 -1 13 21 3 25 -11 26 -15 22 -65 -2 -30 0 -48 4 -40 4
7 9 33 11 58 4 49 2 49 81 29 l47 -12 0 -109 0 -108 -82 -1 c-46 -1 -69 -4
-53 -6 51 -8 372 17 498 38 100 17 194 42 330 86 14 4 17 -1 17 -31 0 -41 -6
-45 -125 -77 -151 -41 -404 -79 -527 -79 -51 0 -57 -2 -60 -22 -2 -15 -11 -24
-25 -26 -13 -2 -23 -7 -23 -12 0 -13 97 -42 119 -35 22 7 560 -159 576 -178 6
-7 25 -20 43 -29 l32 -17 0 663 0 663 -22 -4 c-13 -2 -111 -10 -218 -17 -173
-13 -210 -13 -325 1 -71 9 -131 17 -133 19 -2 1 16 21 40 44 41 39 38 40 -22
10 -12 -6 -21 -6 -25 0 -3 6 -18 10 -33 9 -24 0 -25 -1 -7 -10 14 -6 6 -7 -26
-3 -29 4 -49 2 -53 -5 -4 -6 -14 -11 -22 -11 -8 0 -13 4 -10 8 2 4 -4 9 -15 9
-10 1 -19 -2 -19 -8 0 -5 -4 -9 -10 -9 -5 0 -10 6 -10 13 0 11 -29 15 -50 7
-3 -1 -12 -2 -21 -1 -8 1 -21 -10 -29 -24 -15 -28 -33 -35 -23 -8 5 12 2 15
-13 11 -35 -10 -39 -10 -90 -9 l-51 1 33 65 c18 36 36 85 40 110 6 44 17 57
27 33 4 -10 8 -10 15 1 5 7 15 10 21 6 12 -7 71 12 82 27 3 5 140 15 305 24
164 8 309 17 321 20 18 3 23 11 23 37 l0 33 -217 12 c-120 7 -279 17 -353 22
-74 5 -205 14 -290 20 -85 6 -211 15 -279 21 -69 5 -145 7 -170 4 -25 -3 -183
-10 -351 -15 -168 -6 -388 -15 -490 -20 -102 -5 -239 -12 -305 -15 -66 -3
-131 -8 -144 -11 -21 -5 -23 -3 -12 10 8 9 18 16 24 16 23 0 148 82 195 128
39 38 192 250 192 266 0 2 -16 3 -36 3 -25 -2 -41 -9 -50 -23 -12 -18 -12 -21
0 -21 9 0 12 7 8 16 -3 9 -2 13 3 9 4 -4 14 -3 22 4 23 18 28 -1 10 -35 -38
-70 -149 -208 -194 -241 -59 -43 -177 -103 -221 -112 -25 -5 -32 -3 -32 9 0 8
3 17 8 20 4 2 1 2 -6 0 -7 -1 -22 2 -32 7 -13 7 -21 7 -25 0 -9 -14 -45 -12
-43 3 2 7 -11 13 -35 15 l-37 3 1 160 c0 87 3 159 7 159 3 0 16 -10 29 -22
l23 -21 0 41 c0 41 -1 42 -35 42 l-35 0 0 -180 c0 -113 -4 -180 -10 -180 -6 0
-10 67 -10 180 l0 180 -39 0 c-39 0 -40 -1 -44 -37 l-4 -38 -1 38 c-2 30 -6
37 -22 37 -17 0 -20 -7 -20 -40z m600 -447 l35 -6 -47 -8 c-77 -12 -270 -12
-317 0 -30 8 -53 9 -72 2 -38 -13 -139 -2 -139 15 0 9 20 14 68 16 82 4 424
-10 472 -19z m1014 -180 c9 -26 16 -50 16 -53 0 -4 -35 -23 -77 -43 -77 -35
-138 -56 -118 -40 6 5 8 21 4 38 -4 17 -7 24 -8 17 0 -7 -5 -11 -10 -7 -5 3
-12 -3 -14 -12 -4 -14 -5 -14 -6 3 -1 20 -8 22 -73 26 -40 3 -77 2 -83 -2 -17
-13 -75 -22 -75 -12 0 5 -25 8 -55 8 -53 -1 -69 -9 -42 -19 7 -3 4 -6 -6 -6
-12 -1 -16 -6 -11 -13 4 -7 -6 0 -23 15 -16 15 -34 42 -40 60 l-10 33 101 17
c56 9 126 18 156 18 30 1 66 5 80 9 14 4 82 8 152 9 l126 1 16 -47z m422 -2
c-24 -46 -76 -101 -97 -101 -5 0 -9 14 -9 31 0 20 -10 40 -29 60 -25 24 -37
29 -80 29 -30 0 -51 4 -51 11 0 7 11 8 30 4 16 -3 37 -2 47 4 10 6 62 11 116
11 l97 0 -24 -49z m-1158 -38 c7 -21 14 -46 17 -56 2 -9 11 -24 19 -33 9 -8
16 -18 16 -21 0 -4 -3 -4 -6 0 -10 9 -44 -32 -44 -53 0 -11 -3 -19 -7 -19 -32
5 -43 -3 -43 -31 0 -21 -5 -30 -16 -30 -14 0 -14 -3 -4 -15 11 -13 8 -15 -16
-15 -23 0 -35 9 -57 45 -16 25 -43 56 -59 69 -29 22 -30 26 -19 56 17 49 14
101 -6 116 -16 12 -15 13 10 14 20 0 26 -4 21 -12 -6 -10 -5 -10 7 -1 18 14
49 20 119 22 l55 1 13 -37z m63 30 c4 -40 34 -91 74 -125 37 -32 120 -68 179
-78 66 -11 192 7 276 39 27 10 51 16 54 13 4 -3 6 0 6 7 0 7 5 9 10 6 6 -3 10
-2 10 4 0 5 8 8 18 7 9 -2 20 2 24 8 5 8 8 7 8 -2 0 -11 -65 -47 -73 -40 -2 2
-15 -5 -29 -14 -14 -10 -37 -19 -50 -22 -12 -2 -30 -7 -38 -10 -70 -24 -290
-26 -290 -2 0 5 -3 7 -6 3 -11 -11 -108 44 -137 77 -41 46 -52 60 -53 66 0 3
-4 13 -7 23 -17 42 -16 47 3 47 11 0 20 -3 21 -7z m2022 -252 c26 -17 29 -21
14 -27 -10 -4 -17 -17 -17 -34 0 -15 -9 -35 -20 -45 -11 -10 -21 -32 -21 -49
-2 -28 -2 -27 -9 9 -5 30 -8 33 -9 13 0 -14 -4 -35 -8 -45 -6 -14 -9 -11 -14
17 l-6 35 -2 -37 c-1 -38 -21 -55 -21 -18 0 11 -4 20 -10 20 -5 0 -10 -8 -10
-17 0 -15 -2 -14 -15 3 -13 18 -14 18 -15 1 0 -17 -1 -17 -16 -3 -22 22 -27
20 -22 -9 5 -25 5 -25 -68 -25 -40 0 -76 4 -79 10 -3 6 1 7 9 4 21 -8 20 0 -1
22 -17 16 -18 16 -24 -7 -7 -24 -7 -24 -8 -1 -1 30 -21 28 -21 -3 0 -14 -4
-25 -10 -25 -5 0 -10 11 -10 25 0 15 -6 25 -14 25 -8 0 -21 3 -30 6 -11 4 -16
0 -17 -12 -1 -14 -3 -13 -9 6 l-8 25 -8 -25 -8 -25 -7 25 c-6 23 -7 22 -8 -8
-1 -36 -21 -35 -21 1 0 17 -2 19 -9 8 -7 -11 -10 -9 -14 10 -4 20 -4 21 -6 3
-1 -23 33 -64 54 -64 32 0 16 -47 -29 -83 l-44 -36 -6 52 c-4 28 -12 57 -17
64 -14 16 -20 152 -8 175 15 27 33 17 39 -22 6 -43 30 -53 30 -12 0 29 0 29
47 22 26 -4 55 -5 63 -1 8 3 -7 9 -35 13 -29 4 -8 5 50 2 109 -4 299 10 215
17 -25 1 -55 3 -67 3 -13 0 -23 4 -23 8 0 4 28 8 63 8 41 0 57 3 48 9 -11 7
-6 11 20 14 62 9 139 -1 172 -22z m-1077 -17 c102 -48 158 -159 172 -340 12
-148 9 -223 -8 -234 -22 -14 -24 -13 -42 18 -10 15 -18 22 -18 15 0 -6 -4 -23
-9 -36 -10 -24 -11 -25 -50 -11 -22 7 -79 18 -127 24 -47 5 -92 15 -100 21
-10 8 -14 8 -15 0 -3 -26 -4 -30 -11 -37 -5 -4 -8 -16 -8 -26 0 -32 -18 -19
-25 19 -4 21 -15 43 -26 51 -11 7 -17 17 -14 22 3 5 -6 64 -20 130 -30 143
-31 210 -6 266 18 40 88 120 98 111 2 -3 21 4 41 14 51 25 104 23 168 -7z
m804 -259 c0 -30 3 -55 8 -55 4 0 5 25 4 55 -3 38 0 55 8 55 8 0 11 -11 8 -30
-3 -17 -1 -33 4 -36 4 -3 8 -45 8 -95 l0 -89 55 0 c48 0 55 -2 55 -20 0 -11 4
-20 9 -20 12 0 -7 -57 -22 -67 -6 -4 -7 -1 -2 8 4 8 -2 4 -14 -9 -31 -31 -62
-42 -123 -42 -75 0 -127 19 -144 51 -15 29 -19 89 -6 89 4 0 6 52 4 115 l-3
115 55 0 55 0 3 -112 c2 -81 7 -113 16 -116 10 -3 13 23 10 127 -2 72 0 131 5
131 4 0 7 -25 7 -55z m-940 -527 c-19 -5 -51 -9 -70 -9 -31 0 -32 -1 -10 -8
25 -7 25 -8 22 -112 -1 -58 -8 -160 -15 -227 -9 -85 -10 -123 -3 -126 6 -2
-15 -5 -46 -5 l-57 -1 -5 53 c-12 104 -16 151 -31 335 -3 30 0 62 5 72 8 15 5
20 -18 28 -20 8 10 10 118 10 110 0 137 -2 110 -10z m-926 -43 c22 -24 24 -24
29 -6 3 13 -1 21 -12 24 -9 3 -1 5 17 6 55 2 111 -34 134 -85 55 -126 -83
-257 -229 -218 -13 4 -21 9 -19 13 2 3 -8 7 -22 8 -37 2 -92 64 -92 103 0 54
34 105 87 131 26 12 52 29 56 36 12 19 25 16 51 -12z"/>
<path d="M2263 1274 c4 -4 -8 -17 -27 -28 -86 -54 -116 -101 -116 -184 0 -25
47 -258 54 -269 2 -2 214 24 265 33 l33 5 -6 82 c-9 104 -31 191 -62 243 -20
36 -38 54 -99 102 -14 11 -51 25 -42 16z"/>
<path d="M1375 406 c8 -61 -8 -126 -31 -126 -16 0 -19 -17 -4 -22 6 -2 12 -13
13 -26 1 -16 8 -22 24 -22 13 0 23 5 23 10 0 6 7 10 15 10 8 0 15 9 15 20 0
10 7 23 15 28 9 4 18 25 22 47 4 27 3 36 -5 31 -8 -5 -10 2 -6 24 6 29 -10 44
-19 18 -2 -7 -2 -3 0 10 3 18 -1 22 -21 22 -13 0 -27 -6 -29 -12 -3 -7 -6 -3
-6 9 -1 12 5 24 12 26 7 3 4 6 -6 6 -16 1 -18 -5 -12 -53z"/>
</g>
</svg>
